<svg width="98" height="78" viewBox="0 0 98 78" fill="none" xmlns="http://www.w3.org/2000/svg">
<path d="M87.663 47.0769C86.46 42.9279 82.195 41.4499 78.615 39.9239C74.063 37.9839 72.478 34.5129 68.833 31.4639C65.048 28.2969 60.527 26.1949 56.293 23.7219C52.696 21.6209 49.724 19.1119 46.03 17.2519C43.859 16.1589 41.68 15.0729 39.429 14.1529C36.962 13.1449 36.588 12.1389 35.35 9.81194C33.433 6.20894 31.195 2.43994 27.181 0.920938C22.57 -0.823061 18.355 1.40094 13.741 1.04694C8.482 0.641939 3.443 0.999939 0 5.54494C0.433 5.73694 2.328 4.99294 2.804 4.92194C5.164 4.56594 7.595 4.58394 9.96 4.87194C12.202 5.14494 14.532 5.66594 16.502 6.81494C11.239 5.05794 5.141 5.38794 0.112 7.11994C4.594 8.77394 9.561 8.92994 14.235 9.71894C16.338 13.1819 18.081 14.7129 17.52 19.1319C17.234 21.3829 15.974 23.7049 17.027 25.9359C18.095 28.1999 20.204 29.8499 21.105 32.2049C22.875 36.8309 26.12 39.8719 29.937 42.8399C33.492 45.6049 37.818 51.0439 38.516 55.5999C38.327 55.5969 35.601 61.4579 35.09 62.1919C33.651 64.2599 31.155 68.8819 28.472 68.9889C25.835 69.0939 20.471 68.1179 19.586 71.5879C20.488 70.8959 21.277 70.2439 22.427 70.3189C21.548 70.6409 20.839 71.3579 20.795 72.3139C23.315 70.2299 27.93 71.1049 30.921 71.1079C33.776 71.1109 37.054 68.2869 39.414 70.7419C38.91 67.3469 33.389 70.1009 34.848 66.5419C35.747 64.3499 38.683 62.1669 39.261 60.1689C39.966 59.6889 43.072 55.9649 43.23 55.9629C44.055 52.3279 41.504 49.9239 41.054 46.5329C42.222 48.0429 44.312 47.5169 45.857 48.2389C47.335 48.9289 48.445 51.2379 49.103 52.6189C50.356 55.2519 50.867 59.3739 50.152 62.1769C49.127 66.1949 47.082 71.1219 42.822 72.3309C40.189 73.0789 35.571 71.8399 34.88 75.6399C37.116 73.8799 39.951 74.0079 42.799 74.0079C40.855 75.0959 35.371 74.8899 35.485 77.7559C36.107 76.4349 36.697 76.7239 37.887 76.8799C40.05 77.1629 42.089 75.6459 44.069 75.0349C46.61 74.2509 51.574 72.8749 52.713 76.3049C52.883 74.3849 51.882 73.6579 50.356 72.8459C48.866 72.0529 48.419 72.1489 49.199 70.4449C50.031 68.6279 51.025 66.8899 51.997 65.1459C53.115 63.1399 55.537 60.0969 55.686 57.7759C55.846 55.2829 53.893 50.7919 52.842 48.5279C54.447 48.8659 56.206 49.1529 57.823 48.7059C58.554 48.5099 59.19 48.1489 59.733 47.6209C61.346 47.6909 62.959 47.7729 64.57 47.8829C69.206 48.1999 73.878 48.7149 78.363 49.9809C81.758 50.9379 84.544 52.0919 87.948 52.5239C89.571 52.7299 90.015 52.3689 91.743 53.0239C93.701 53.7669 95.944 54.3289 97.999 53.6069C94.246 51.7379 92.163 48.1989 87.663 47.0769ZM20.129 5.81694C18.206 5.81694 18.206 3.15694 20.129 3.15694C22.053 3.15694 22.053 5.81694 20.129 5.81694Z" fill="#D3D3D3"/>
</svg>
